<svg xmlns="http://www.w3.org/2000/svg" viewBox="0 0 288.937 288.938"><path d="M207.967 272.338c-22.815 12.03-46.076 16.6-73.897 16.6-68.084 0-125.788-49.793-125.788-129.508C8.282 73.9 67.642 0 159.832 0c72.242 0 120.823 50.642 120.823 119.973 0 62.272-34.88 98.81-73.9 98.81-16.633 0-31.975-11.218-30.728-36.537h-1.658c-14.536 24.507-33.637 36.538-58.55 36.538-24.07 0-44.826-19.533-44.826-52.325 0-51.486 40.67-98.374 98.373-98.374 17.846 0 33.64 3.717 44.418 8.723l-14.096 75.12c-6.222 31.574-1.26 46.11 12.442 46.51 21.19.406 44.857-27.824 44.857-75.993 0-60.176-36.14-103.38-100.507-103.38-67.644 0-124.538 53.58-124.538 137.86 0 69.337 45.267 112.096 106.687 112.096 23.667 0 45.676-4.997 62.71-14.535l6.625 17.85zm-22.82-179.374c-4.157-1.218-11.225-2.876-20.763-2.876-36.538 0-66.02 34.448-66.02 74.717 0 18.286 9.13 31.575 27.415 31.575 24.07 0 46.072-30.73 50.64-56.494l8.726-46.922z"/></svg>
