<svg xmlns="http://www.w3.org/2000/svg" viewBox="0 0 396.238 396.238"><path d="M381.238 159.54H15c-8.25 0-15 6.75-15 15v160.405c0 8.25 6.75 15 15 15h366.238c8.25 0 15-6.75 15-15V174.54c0-8.25-6.75-15-15-15zM374.9 322.257c0 5.5-4.5 10-10 10H31.338c-5.5 0-10-4.5-10-10V187.23c0-5.5 4.5-10 10-10H364.9c5.5 0 10 4.5 10 10v135.026z"/><path d="M137.083 253.91c0 27.58-16.762 42.203-37.21 42.203-21.16 0-36.02-16.405-36.02-40.656 0-25.44 15.812-42.083 37.21-42.083 21.873 0 36.02 16.763 36.02 40.537zm-62.173 1.31c0 17.118 9.272 32.454 25.56 32.454 16.404 0 25.677-15.1 25.677-33.287 0-15.93-8.322-32.572-25.56-32.572-17.12 0-25.677 15.81-25.677 33.404zM152.472 215.325c4.993-.833 9.57-1.238 17.89-1.238 10.225 0 17.713 2.378 22.47 6.658 4.397 3.804 7.014 9.63 7.014 16.76 0 7.253-2.14 12.96-6.183 17.12-5.47 5.825-14.385 8.797-24.49 8.797-2.492 0-4.83-.076-6.89-.42-.494-.08-1.43-.093-1.43.947v26.1c0 2.616-2.14 4.757-4.755 4.757h-.833c-2.615 0-4.755-2.14-4.755-4.756v-71.718c0-2.873 1.962-3.007 1.962-3.007zm8.38 38.025c0 .78.48 1.04.732 1.094 2.133.466 4.742.656 7.827.656 12.483 0 20.09-6.062 20.09-17.12 0-10.58-7.488-15.69-18.9-15.69-4.518 0-5.053.085-5.053.085-2.583.41-4.696 2.888-4.696 5.502l.002 25.473zM255.237 252.96c0 2.354-2.14 4.28-4.755 4.28h-21.637c-2.615 0-4.754 2.14-4.754 4.754v19.378c0 2.615 2.14 4.755 4.755 4.755h25.203c2.615 0 4.755 1.952 4.755 4.34 0 2.385-2.14 4.338-4.755 4.338h-35.545c-2.615 0-4.754-2.14-4.754-4.754v-70.614c0-2.614 2.138-4.754 4.753-4.754h33.763c2.614 0 4.755 1.953 4.755 4.338 0 2.388-2.14 4.34-4.754 4.34h-23.42c-2.614 0-4.755 2.14-4.755 4.755v15.812c0 2.615 2.142 4.754 4.757 4.754h21.636c2.615.002 4.754 1.927 4.754 4.28zM276.988 294.807c-2.615 0-4.755-2.14-4.755-4.756V219.44c0-2.615 2.14-4.756 4.755-4.756h1.784c2.614 0 5.898 1.81 7.3 4.018l20.588 32.504c1.4 2.21 3.636 5.857 4.97 8.105l11.098 20.362c.593 1.018.975-.672.823-3.283 0 0-.912-15.702-.912-28.184v-28.77c0-2.614 2.14-4.755 4.756-4.755h.238c2.615 0 4.755 2.142 4.755 4.757v70.613c0 2.615-2.14 4.756-4.755 4.756h-.952c-2.614 0-5.89-1.814-7.276-4.03l-20.396-32.597c-1.387-2.218-3.63-5.86-4.983-8.1l-11.86-21.49c-.105.034-.855-1.442-.855.49 0 .858-.01 1.98.042 3.19 0 0 .63 14.982.63 28.298v29.48c0 2.616-2.14 4.757-4.754 4.757h-.24v.002zM293.455 143.54l-78.077-78.075c-.356-.41-.268-1.124-.182-1.815.038-.307.07-.6.07-.857 0-9.098-7.4-16.5-16.5-16.5s-16.5 7.402-16.5 16.5c0 .337.014.67.043 1.062.03.396.07.94-.657 1.78l-79.32 79.32c-1.474 1.473-1.345 2.542-1.137 3.048.208.506.868 1.356 2.952 1.367l9.693.053h.042c2.865 0 6.835-1.64 8.85-3.655l67.8-67.8c.432-.387.862-.416 1.02-.34 4.506 2.202 9.86 2.21 14.373.032.065-.032.28-.145.812.376l66.318 66.318c2.788 2.79 8.284 5.06 12.306 5.06l5.692-.032c2.077-.01 3.48-.647 3.95-1.79.47-1.145-.078-2.584-1.547-4.052zm-179.573 5.38v.002-.002z"/></svg>
